<svg width="51" height="51" viewBox="0 0 51 51" fill="none" xmlns="http://www.w3.org/2000/svg">
<path fill-rule="evenodd" clip-rule="evenodd" d="M25.5 51C39.5833 51 51 39.5833 51 25.5C51 11.4167 39.5833 0 25.5 0C11.4167 0 0 11.4167 0 25.5C0 39.5833 11.4167 51 25.5 51ZM25.5 48C37.9264 48 48 37.9264 48 25.5C48 13.0736 37.9264 3 25.5 3C13.0736 3 3 13.0736 3 25.5C3 37.9264 13.0736 48 25.5 48Z" fill="#353535"/>
<path d="M24.0973 24.5247H26.9623V41.9196C26.9623 42.7107 26.321 43.3521 25.5298 43.3521C24.7387 43.3521 24.0973 42.7107 24.0973 41.9196V24.5247Z" fill="#643030"/>
<path d="M30.4224 26.9018L32.3967 28.4915L26.383 35.9604L24.4086 34.3707L30.4224 26.9018Z" fill="#643030"/>
<path d="M19.0844 28.3808L20.4661 26.3416L25.6644 29.864L24.2826 31.9032L19.0844 28.3808Z" fill="#643030"/>
<circle cx="26.553" cy="12.5022" r="4.5022" fill="#56B86C"/>
<circle cx="18.5718" cy="16.7998" r="5.11614" fill="white"/>
<circle cx="18.5718" cy="16.7998" r="4.70685" fill="#56B86C"/>
<circle cx="29.6228" cy="20.5653" r="7.98118" fill="white"/>
<circle cx="29.6228" cy="20.5653" r="7.54976" fill="#56B86C"/>
<circle cx="34.8207" cy="25.1902" r="4.9115" fill="white"/>
<circle cx="34.8207" cy="25.1902" r="4.5022" fill="#56B86C"/>
<circle cx="17.344" cy="23.7577" r="6.34401" fill="white"/>
<circle cx="17.344" cy="23.7577" r="5.93472" fill="#56B86C"/>
</svg>
