<svg width="103" height="42" viewBox="0 0 103 42" fill="none" xmlns="http://www.w3.org/2000/svg">
<path d="M5.444 5.848C4.436 5.848 3.68 5.62 3.176 5.164C2.672 4.684 2.42 4.024 2.42 3.184C2.42 2.344 2.744 1.648 3.392 1.096C4.064 0.519999 4.892 0.231999 5.876 0.231999C6.764 0.231999 7.484 0.447999 8.036 0.879999C8.588 1.312 8.864 1.924 8.864 2.716C8.864 3.676 8.552 4.444 7.928 5.02C7.304 5.572 6.476 5.848 5.444 5.848ZM5.156 25.18C3.596 25.18 2.456 24.628 1.736 23.524C1.04 22.42 0.692 20.956 0.692 19.132C0.692 18.052 0.824 16.672 1.088 14.992C1.376 13.288 1.736 11.704 2.168 10.24C2.384 9.472 2.672 8.944 3.032 8.656C3.392 8.368 3.968 8.224 4.76 8.224C5.984 8.224 6.596 8.632 6.596 9.448C6.596 10.048 6.368 11.44 5.912 13.624C5.336 16.264 5.048 18.052 5.048 18.988C5.048 19.708 5.144 20.26 5.336 20.644C5.528 21.028 5.852 21.22 6.308 21.22C6.74 21.22 7.28 20.92 7.928 20.32C8.576 19.72 9.44 18.772 10.52 17.476C10.808 17.14 11.132 16.972 11.492 16.972C11.804 16.972 12.044 17.116 12.212 17.404C12.404 17.692 12.5 18.088 12.5 18.592C12.5 19.552 12.272 20.296 11.816 20.824C9.44 23.728 7.22 25.18 5.156 25.18ZM12.6834 25.18C11.7714 25.18 11.1234 24.7 10.7394 23.74C10.3794 22.78 10.1994 21.244 10.1994 19.132C10.1994 16.012 10.6434 13.048 11.5314 10.24C11.7474 9.544 12.0954 9.04 12.5754 8.728C13.0794 8.392 13.7754 8.224 14.6634 8.224C15.1434 8.224 15.4794 8.284 15.6714 8.404C15.8634 8.524 15.9594 8.752 15.9594 9.088C15.9594 9.472 15.7794 10.336 15.4194 11.68C15.1794 12.64 14.9874 13.48 14.8434 14.2C14.6994 14.92 14.5794 15.808 14.4834 16.864C15.2754 14.8 16.1634 13.12 17.1474 11.824C18.1314 10.528 19.0914 9.604 20.0274 9.052C20.9874 8.5 21.8634 8.224 22.6554 8.224C24.2154 8.224 24.9954 9.004 24.9954 10.564C24.9954 11.5 24.7314 13.192 24.2034 15.64C23.7474 17.728 23.5194 19.108 23.5194 19.78C23.5194 20.74 23.8674 21.22 24.5634 21.22C25.0434 21.22 25.6074 20.932 26.2554 20.356C26.9274 19.756 27.8154 18.796 28.9194 17.476C29.2074 17.14 29.5314 16.972 29.8914 16.972C30.2034 16.972 30.4434 17.116 30.6114 17.404C30.8034 17.692 30.8994 18.088 30.8994 18.592C30.8994 19.552 30.6714 20.296 30.2154 20.824C29.1834 22.096 28.0674 23.14 26.8674 23.956C25.6914 24.772 24.3474 25.18 22.8354 25.18C21.6114 25.18 20.6874 24.832 20.0634 24.136C19.4394 23.416 19.1274 22.384 19.1274 21.04C19.1274 20.368 19.2954 19.168 19.6314 17.44C19.9434 15.928 20.0994 14.884 20.0994 14.308C20.0994 13.924 19.9674 13.732 19.7034 13.732C19.3914 13.732 18.9474 14.14 18.3714 14.956C17.8194 15.748 17.2434 16.804 16.6434 18.124C16.0674 19.444 15.5994 20.836 15.2394 22.3C14.9754 23.428 14.6634 24.196 14.3034 24.604C13.9674 24.988 13.4274 25.18 12.6834 25.18ZM35.2228 25.972C33.9748 25.972 33.0148 25.684 32.3428 25.108C31.6948 24.532 31.3708 23.884 31.3708 23.164C31.3708 22.54 31.5988 22 32.0548 21.544C32.5108 21.088 33.1828 20.86 34.0708 20.86C34.3828 20.86 34.7428 20.896 35.1508 20.968C35.5828 21.016 35.9067 21.052 36.1228 21.076C36.0988 20.452 35.9548 19.864 35.6908 19.312C35.4508 18.76 35.1388 18.232 34.7548 17.728C34.3708 17.2 34.0108 16.744 33.6748 16.36C32.9308 17.776 32.1868 18.952 31.4428 19.888C30.7228 20.824 29.9308 21.712 29.0667 22.552C28.6347 22.984 28.1787 23.2 27.6987 23.2C27.3147 23.2 27.0027 23.068 26.7627 22.804C26.5227 22.516 26.4027 22.168 26.4027 21.76C26.4027 21.28 26.5707 20.836 26.9067 20.428L27.3747 19.852C28.6947 18.22 29.6908 16.876 30.3628 15.82C30.7708 15.124 31.2508 14.2 31.8028 13.048C32.3548 11.872 32.8948 10.66 33.4228 9.412C33.8788 8.356 34.8268 7.828 36.2668 7.828C36.9388 7.828 37.4068 7.888 37.6708 8.008C37.9348 8.128 38.0668 8.32 38.0668 8.584C38.0668 8.728 38.0188 8.956 37.9228 9.268C37.8268 9.58 37.6948 9.892 37.5268 10.204C37.0948 11.068 36.8787 11.8 36.8787 12.4C36.8787 12.76 36.9988 13.156 37.2388 13.588C37.5028 14.02 37.8988 14.56 38.4268 15.208C39.1948 16.216 39.7708 17.08 40.1548 17.8C40.5628 18.496 40.7668 19.264 40.7668 20.104C40.7668 20.344 40.7428 20.68 40.6948 21.112C41.8708 20.656 43.2508 19.444 44.8348 17.476C45.1228 17.14 45.4468 16.972 45.8067 16.972C46.1188 16.972 46.3588 17.116 46.5268 17.404C46.7188 17.692 46.8148 18.088 46.8148 18.592C46.8148 19.504 46.5868 20.248 46.1307 20.824C44.9308 22.312 43.7788 23.332 42.6748 23.884C41.5948 24.412 40.2508 24.7 38.6428 24.748C37.6828 25.564 36.5428 25.972 35.2228 25.972ZM63.654 16.972C63.966 16.972 64.206 17.116 64.374 17.404C64.566 17.692 64.662 18.088 64.662 18.592C64.662 19.552 64.434 20.296 63.978 20.824C62.946 22.096 61.83 23.14 60.63 23.956C59.454 24.772 58.11 25.18 56.598 25.18C55.326 25.18 54.294 24.724 53.502 23.812C52.134 24.7 50.706 25.156 49.218 25.18C48.906 29.812 48.198 33.676 47.094 36.772C45.99 39.892 44.37 41.452 42.234 41.452C40.938 41.452 39.978 40.984 39.354 40.048C38.73 39.112 38.418 37.816 38.418 36.16C38.418 33.808 38.958 31.06 40.038 27.916C41.118 24.796 42.786 21.352 45.042 17.584C45.042 14.08 45.018 11.644 44.97 10.276C44.946 9.58 45.222 9.028 45.798 8.62C46.374 8.212 47.094 8.008 47.958 8.008C48.462 8.008 48.822 8.116 49.038 8.332C49.278 8.524 49.41 8.92 49.434 9.52C49.434 10.12 49.446 10.564 49.47 10.852C50.238 9.892 50.994 9.208 51.738 8.8C52.482 8.368 53.274 8.152 54.114 8.152C55.458 8.152 56.55 8.692 57.39 9.772C58.254 10.852 58.686 12.268 58.686 14.02C58.686 15.292 58.482 16.528 58.074 17.728C57.666 18.928 57.102 20.02 56.382 21.004C56.886 21.148 57.306 21.22 57.642 21.22C58.434 21.22 59.19 20.932 59.91 20.356C60.63 19.78 61.554 18.82 62.682 17.476C62.97 17.14 63.294 16.972 63.654 16.972ZM49.398 21.724C50.262 21.532 51.054 21.064 51.774 20.32C52.518 19.552 53.106 18.616 53.538 17.512C53.97 16.384 54.186 15.208 54.186 13.984C54.186 13.264 54.042 12.724 53.754 12.364C53.466 11.98 53.082 11.788 52.602 11.788C51.738 11.788 50.694 12.7 49.47 14.524C49.446 15.58 49.434 17.128 49.434 19.168C49.434 20.272 49.422 21.124 49.398 21.724ZM42.522 37.924C43.17 37.924 43.71 36.508 44.142 33.676C44.574 30.868 44.85 27.364 44.97 23.164C43.938 25.564 43.122 27.856 42.522 30.04C41.922 32.224 41.622 34.06 41.622 35.548C41.622 36.316 41.718 36.904 41.91 37.312C42.078 37.72 42.282 37.924 42.522 37.924ZM67.0181 5.848C66.0101 5.848 65.2541 5.62 64.7501 5.164C64.2461 4.684 63.9941 4.024 63.9941 3.184C63.9941 2.344 64.3181 1.648 64.9661 1.096C65.6381 0.519999 66.4661 0.231999 67.4501 0.231999C68.3381 0.231999 69.0581 0.447999 69.6101 0.879999C70.1621 1.312 70.4381 1.924 70.4381 2.716C70.4381 3.676 70.1261 4.444 69.5021 5.02C68.8781 5.572 68.0501 5.848 67.0181 5.848ZM66.7301 25.18C65.1701 25.18 64.0301 24.628 63.3101 23.524C62.6141 22.42 62.2661 20.956 62.2661 19.132C62.2661 18.052 62.3981 16.672 62.6621 14.992C62.9501 13.288 63.3101 11.704 63.7421 10.24C63.9581 9.472 64.2461 8.944 64.6061 8.656C64.9661 8.368 65.5421 8.224 66.3341 8.224C67.5581 8.224 68.1701 8.632 68.1701 9.448C68.1701 10.048 67.9421 11.44 67.4861 13.624C66.9101 16.264 66.6221 18.052 66.6221 18.988C66.6221 19.708 66.7181 20.26 66.9101 20.644C67.1021 21.028 67.4261 21.22 67.8821 21.22C68.3141 21.22 68.8541 20.92 69.5021 20.32C70.1501 19.72 71.0141 18.772 72.0941 17.476C72.3821 17.14 72.7061 16.972 73.0661 16.972C73.3781 16.972 73.6181 17.116 73.7861 17.404C73.9781 17.692 74.0741 18.088 74.0741 18.592C74.0741 19.552 73.8461 20.296 73.3901 20.824C71.0141 23.728 68.7941 25.18 66.7301 25.18ZM74.2574 25.18C73.3454 25.18 72.6974 24.7 72.3134 23.74C71.9534 22.78 71.7734 21.244 71.7734 19.132C71.7734 16.012 72.2174 13.048 73.1054 10.24C73.3214 9.544 73.6694 9.04 74.1494 8.728C74.6534 8.392 75.3494 8.224 76.2374 8.224C76.7174 8.224 77.0534 8.284 77.2454 8.404C77.4374 8.524 77.5334 8.752 77.5334 9.088C77.5334 9.472 77.3534 10.336 76.9934 11.68C76.7534 12.64 76.5614 13.48 76.4174 14.2C76.2734 14.92 76.1534 15.808 76.0574 16.864C76.8494 14.8 77.7374 13.12 78.7214 11.824C79.7054 10.528 80.6654 9.604 81.6014 9.052C82.5614 8.5 83.4374 8.224 84.2294 8.224C85.7894 8.224 86.5694 9.004 86.5694 10.564C86.5694 10.876 86.4614 11.632 86.2454 12.832C86.0534 13.792 85.9574 14.392 85.9574 14.632C85.9574 15.472 86.2574 15.892 86.8574 15.892C87.5294 15.892 88.3934 15.364 89.4494 14.308C89.7614 13.996 90.0854 13.84 90.4214 13.84C90.7334 13.84 90.9734 13.984 91.1414 14.272C91.3334 14.536 91.4294 14.896 91.4294 15.352C91.4294 16.24 91.1894 16.936 90.7094 17.44C90.0374 18.136 89.2454 18.736 88.3334 19.24C87.4454 19.72 86.4974 19.96 85.4894 19.96C84.2174 19.96 83.2454 19.636 82.5734 18.988C81.9254 18.34 81.6014 17.464 81.6014 16.36C81.6014 16 81.6374 15.64 81.7094 15.28C81.7574 14.8 81.7814 14.476 81.7814 14.308C81.7814 13.924 81.6494 13.732 81.3854 13.732C81.0254 13.732 80.5454 14.14 79.9454 14.956C79.3694 15.748 78.7934 16.804 78.2174 18.124C77.6414 19.444 77.1734 20.836 76.8134 22.3C76.5494 23.428 76.2374 24.196 75.8774 24.604C75.5414 24.988 75.0014 25.18 74.2574 25.18ZM101.512 18.052C101.824 18.052 102.064 18.196 102.232 18.484C102.424 18.772 102.52 19.168 102.52 19.672C102.52 20.536 102.316 21.28 101.908 21.904C101.236 22.936 100.348 23.74 99.2442 24.316C98.1642 24.892 96.8682 25.18 95.3562 25.18C93.0522 25.18 91.2642 24.496 89.9922 23.128C88.7202 21.736 88.0842 19.864 88.0842 17.512C88.0842 15.856 88.4322 14.32 89.1282 12.904C89.8242 11.464 90.7842 10.324 92.0082 9.484C93.2562 8.644 94.6602 8.224 96.2202 8.224C97.6122 8.224 98.7282 8.644 99.5682 9.484C100.408 10.3 100.828 11.416 100.828 12.832C100.828 14.488 100.228 15.916 99.0282 17.116C97.8522 18.292 95.8362 19.228 92.9802 19.924C93.5562 21.028 94.5282 21.58 95.8962 21.58C96.8802 21.58 97.6842 21.352 98.3082 20.896C98.9562 20.44 99.7002 19.672 100.54 18.592C100.828 18.232 101.152 18.052 101.512 18.052ZM95.6082 11.752C94.7202 11.752 93.9642 12.268 93.3402 13.3C92.7402 14.332 92.4402 15.58 92.4402 17.044V17.116C93.8562 16.78 94.9722 16.276 95.7882 15.604C96.6042 14.932 97.0122 14.152 97.0122 13.264C97.0122 12.808 96.8802 12.448 96.6162 12.184C96.3762 11.896 96.0402 11.752 95.6082 11.752Z" fill="url(#paint0_radial_301:556)"/>
<defs>
<radialGradient id="paint0_radial_301:556" cx="0" cy="0" r="1" gradientUnits="userSpaceOnUse" gradientTransform="translate(62.5838 -4.99999) rotate(119.917) scale(61.7249 151.626)">
<stop offset="0.161458" stop-color="#F48888"/>
<stop offset="0.540267" stop-color="#D639D0"/>
<stop offset="1" stop-color="#36A4E9"/>
</radialGradient>
</defs>
</svg>
